name GIL11_slow_20KgBackpack_grf.mot																		
datacolumns 19																		
datarows 32																		
range 0.26666653 0.52499986																		
endheader																		
																		
                time	     ground_force_vx	     ground_force_vy	     ground_force_vz	     ground_force_px	     ground_force_py	     ground_force_pz	     1_ground_force_vx	     1_ground_force_vy	     1_ground_force_vz	     1_ground_force_px	     1_ground_force_py	     1_ground_force_pz	     ground_torque_x	     ground_torque_y	     ground_torque_z	     1_ground_torque_x	     1_ground_torque_y	     1_ground_torque_z
0.26666653	0	0	0	1.8854436	0	0.0474281	-59.77992399	771.2159009	38.9592283	1.50069739	0	-0.06195505	0	0	0	0	0.586085305	0
0.27499989	0	0	0	1.88753369	0	0.04742053	-58.62269316	773.3304473	39.75853915	1.50266943	0	-0.0626889	0	0	0	0	0.662594747	0
0.28333321	0	0	0	1.88980249	0	0.04746263	-56.90915664	776.3227636	40.66501335	1.50477856	0	-0.06344214	0	0	0	0	0.752141586	0
0.29166654	0	0	0	1.89218286	0	0.04752393	-54.75836447	780.0870609	41.52882226	1.50674878	0	-0.06411194	0	0	0	0	0.828124275	0
0.29999986	0	0	0	1.89460498	0	0.04758188	-52.31664715	784.5336722	42.23700908	1.50849341	0	-0.06467929	0	0	0	0	0.876294602	0
0.30833322	0	0	0	1.89705933	0	0.04763655	-49.70152771	789.7913384	42.6927564	1.5100022	0	-0.06513828	0	0	0	0	0.89438234	0
0.31666654	0	0	0	1.89954297	0	0.04770569	-46.91732872	795.91337	42.83342902	1.511276	0	-0.06549063	0	0	0	0	0.878888157	0
0.32499987	0	0	0	1.90204053	0	0.04778577	-43.87143887	802.4886804	42.60789203	1.51234973	0	-0.06574506	0	0	0	0	0.821317	0
0.33333319	0	0	0	1.9045354	0	0.04786063	-40.48023459	808.5739911	42.01343663	1.51332739	0	-0.06594562	0	0	0	0	0.72026747	0
0.34166655	0	0	0	1.90700854	0	0.04792732	-36.72012811	813.1456615	41.18355884	1.5143324	0	-0.06614972	0	0	0	0	0.58747368	0
0.34999987	0	0	0	1.9094502	0	0.04798013	-32.68449285	815.5692441	40.36983844	1.51546436	0	-0.06638596	0	0	0	0	0.439596676	0
0.3583332	0	0	0	1.91187451	0	0.04801849	-28.59127514	815.7022744	39.85248182	1.51680237	0	-0.0666553	0	0	0	0	0.291962243	0
0.36666656	0	0	0	1.91431396	0	0.04806531	-24.70913886	813.6203001	39.81963201	1.51840405	0	-0.06694775	0	0	0	0	0.159622334	0
0.37499988	0	0	0	1.91681396	0	0.04813077	-21.3061005	809.5110208	40.25590152	1.52029712	0	-0.06724304	0	0	0	0	0.045398293	0
0.38333321	0	0	0	1.91942505	0	0.04821701	-18.55770056	803.6583905	40.98418343	1.52247949	0	-0.06750604	0	0	0	0	-0.057900455	0
0.39166653	0	0	0	1.92213892	0	0.04834027	-16.48850751	796.760807	41.72724622	1.52489661	0	-0.06769086	0	0	0	0	-0.165213403	0
0.39999986	0	0	0	1.92487891	0	0.04851486	-14.9491486	790.1063797	42.15296144	1.52739453	0	-0.06775818	0	0	0	0	-0.289062383	0
0.40833321	0	0	0	1.92758154	0	0.04873289	-13.68791872	784.7368137	42.00166721	1.52981091	0	-0.06767694	0	0	0	0	-0.433688685	0
0.41666654	0	0	0	1.9302605	0	0.04898993	-12.50988595	780.9785249	41.21551036	1.53208765	0	-0.06744492	0	0	0	0	-0.594825317	0
0.42499989	0	0	0	1.93297534	0	0.04928195	-11.38219454	778.756401	39.85387469	1.53423792	0	-0.06710568	0	0	0	0	-0.772951318	0
0.43333322	0	0	0	1.93574609	0	0.04959737	-10.36536967	778.0246429	38.07091596	1.53630408	0	-0.06671088	0	0	0	0	-0.968098989	0
0.44166654	0	0	0	1.93855371	0	0.04993532	-9.467979984	778.6586578	36.08445806	1.53833655	0	-0.06630914	0	0	0	0	-1.169346795	0
0.44999987	0	0	0	1.94135034	0	0.05029657	-8.56552926	780.267594	34.12775775	1.54038953	0	-0.06595877	0	0	0	0	-1.361147724	0
0.45833319	0	0	0	1.94407837	0	0.05066547	-7.47750187	782.3237996	32.40534645	1.54251697	0	-0.06570468	0	0	0	0	-1.525864577	0
0.46666652	0	0	0	1.94670898	0	0.05101758	-6.13816305	784.2490405	31.10090214	1.54477368	0	-0.06558163	0	0	0	0	-1.646602787	0
0.47499987	0	0	0	1.94927441	0	0.05135251	-4.632100857	785.6045332	30.34658978	1.54720679	0	-0.06559583	0	0	0	0	-1.715353817	0
0.4833332	0	0	0	1.95180884	0	0.05168445	-3.131036756	786.436242	30.12468615	1.54979932	0	-0.0657352	0	0	0	0	-1.742612634	0
0.49166656	0	0	0	1.95431787	0	0.05201335	-1.760236872	787.0129917	30.24711294	1.55250916	0	-0.06598029	0	0	0	0	-1.75516644	0
0.49999988	0	0	0	1.95678687	0	0.05233389	-0.507008691	787.6413988	30.50921986	1.55530786	0	-0.06630783	0	0	0	0	-1.766925624	0
0.50833321	0	0	0	1.9591897	0	0.0526396	0.75938987	788.4988592	30.7929779	1.55816638	0	-0.06669742	0	0	0	0	-1.774887773	0
0.51666653	0	0	0	1.96151758	0	0.05293137	2.186101074	789.4086527	31.08132796	1.56106421	0	-0.06713547	0	0	0	0	-1.776221498	0
0.52499986	0	0	0	1.96379614	0	0.05322562	3.847722898	790.1009278	31.42099068	1.56397888	0	-0.06760391	0	0	0	0	-1.774955813	0
